# xmcd
# 
# Track frame offsets:
#	150
#	20222
#	37522
#	57608
#	74816
#	89591
#	104448
#	124323
#	143110
#	159773
#	175438
#	191271
#	209325
#	223640
#	238836
#	255085
#	269051
#
# Disc length: 3792 seconds
#
# Revision: 1
# Processed by: cddbd v1.5.1PL0 Copyright (c) Steve Scherf et al.
# Submitted via: Audio-CD-Archiv 3.00.487
#
DISCID=030ece11
DTITLE=Ellis Hooks - The Hand Of God
DYEAR=1900
DGENRE=blues
TTITLE0=Gonna Take Some Time
TTITLE1=Forty Days And Forty Nights
TTITLE2=Uncomplicated
TTITLE3=She Locked The Door
TTITLE4=It's A Massle
TTITLE5=The Hand Of God
TTITLE6=Never Give Up On Your Love
TTITLE7=The Idea Of You
TTITLE8=Ready This Time
TTITLE9=Slide The Gun
TTITLE10=It's Not Me
TTITLE11=That's Not What I Need
TTITLE12=M' Baby
TTITLE13=Sweet Justina
TTITLE14=Let Love Do It
TTITLE15=Can't Take This No More
TTITLE16=I Don'T Want To Go Home
EXTD=
EXTT0=
EXTT1=
EXTT2=
EXTT3=
EXTT4=
EXTT5=
EXTT6=
EXTT7=
EXTT8=
EXTT9=
EXTT10=
EXTT11=
EXTT12=
EXTT13=
EXTT14=
EXTT15=
EXTT16=
PLAYORDER=
